<svg width="186" height="169" viewBox="0 0 186 169" fill="none" xmlns="http://www.w3.org/2000/svg">
<g id="Group 6">
<path id="Rectangle 28" d="M9.7342 70.9161H176.165C177.777 70.9161 178.726 72.7248 177.811 74.0516L161.028 98.3873C152.255 111.108 137.79 118.704 122.337 118.704H121.679C120.495 118.704 119.337 119.054 118.351 119.712L115.719 121.466C103.506 129.608 103.2 147.447 115.127 156.002L129.062 166H56.8367L70.7725 156.002C82.6986 147.447 82.3927 129.608 70.1801 121.466L67.5482 119.712L65.8841 122.208L67.5482 119.712C66.5626 119.054 65.4046 118.704 64.22 118.704H63.562C48.1093 118.704 33.644 111.108 24.871 98.3873L8.08778 74.0516C7.17276 72.7248 8.12252 70.9161 9.7342 70.9161Z" stroke="white" stroke-width="6"/>
<g id="Ellipse 13">
<mask id="path-2-inside-1_72_21" fill="white">
<path d="M94.8044 72.5531C94.8044 68.047 93.9169 63.5851 92.1925 59.4221C90.4681 55.2591 87.9406 51.4765 84.7544 48.2902C81.5681 45.104 77.7855 42.5765 73.6225 40.8521C69.4595 39.1278 64.9976 38.2402 60.4915 38.2402C55.9855 38.2402 51.5236 39.1278 47.3606 40.8521C43.1976 42.5765 39.4149 45.104 36.2287 48.2902C33.0425 51.4765 30.515 55.2591 28.7906 59.4221C27.0662 63.5851 26.1787 68.047 26.1787 72.5531L60.4915 72.5531H94.8044Z"/>
</mask>
<path d="M94.8044 72.5531C94.8044 68.047 93.9169 63.5851 92.1925 59.4221C90.4681 55.2591 87.9406 51.4765 84.7544 48.2902C81.5681 45.104 77.7855 42.5765 73.6225 40.8521C69.4595 39.1278 64.9976 38.2402 60.4915 38.2402C55.9855 38.2402 51.5236 39.1278 47.3606 40.8521C43.1976 42.5765 39.4149 45.104 36.2287 48.2902C33.0425 51.4765 30.515 55.2591 28.7906 59.4221C27.0662 63.5851 26.1787 68.047 26.1787 72.5531L60.4915 72.5531H94.8044Z" stroke="white" stroke-width="10" mask="url(#path-2-inside-1_72_21)"/>
</g>
<path id="Ellipse 15" d="M59.8748 41.9497C59.67 40.4333 59.5642 38.8854 59.5642 37.3128C59.5642 18.3624 74.9266 3 93.877 3C112.828 3 128.19 18.3624 128.19 37.3128C128.19 38.8854 128.084 40.4333 127.879 41.9497" stroke="white" stroke-width="5"/>
<g id="Ellipse 14">
<mask id="path-4-inside-2_72_21" fill="white">
<path d="M159.72 72.5531C159.72 68.047 158.833 63.5851 157.108 59.4221C155.384 55.2591 152.857 51.4765 149.67 48.2902C146.484 45.104 142.702 42.5765 138.539 40.8521C134.375 39.1278 129.914 38.2402 125.408 38.2402C120.902 38.2402 116.44 39.1278 112.277 40.8521C108.114 42.5765 104.331 45.104 101.145 48.2902C97.9585 51.4765 95.431 55.2591 93.7066 59.4221C91.9823 63.5851 91.0947 68.047 91.0947 72.5531L125.408 72.5531H159.72Z"/>
</mask>
<path d="M159.72 72.5531C159.72 68.047 158.833 63.5851 157.108 59.4221C155.384 55.2591 152.857 51.4765 149.67 48.2902C146.484 45.104 142.702 42.5765 138.539 40.8521C134.375 39.1278 129.914 38.2402 125.408 38.2402C120.902 38.2402 116.44 39.1278 112.277 40.8521C108.114 42.5765 104.331 45.104 101.145 48.2902C97.9585 51.4765 95.431 55.2591 93.7066 59.4221C91.9823 63.5851 91.0947 68.047 91.0947 72.5531L125.408 72.5531H159.72Z" stroke="white" stroke-width="10" mask="url(#path-4-inside-2_72_21)"/>
</g>
<path id="Line 4" d="M179.407 23.3915C180.649 21.9107 180.456 19.7031 178.975 18.4606C177.495 17.2181 175.287 17.4112 174.044 18.892L179.407 23.3915ZM174.044 18.892L147.573 50.4393L152.935 54.9388L179.407 23.3915L174.044 18.892Z" fill="white"/>
</g>
</svg>
