<svg width="205" height="131" viewBox="0 0 205 131" fill="none" xmlns="http://www.w3.org/2000/svg">
<g id="Group 4">
<path id="Rectangle 24" d="M125.277 83.6687H19.8198V120.009C19.8198 124.703 23.6254 128.509 28.3198 128.509H177.395C182.089 128.509 185.895 124.703 185.895 120.009V83.6687H175.93" stroke="white" stroke-width="5"/>
<path id="Polygon 1" d="M186.74 53.369L149.358 93.2969L111.976 53.369H186.74Z" stroke="white" stroke-width="5"/>
<path id="Rectangle 22" d="M22.3198 25.6312C22.3198 13.2048 32.3934 3.13123 44.8198 3.13123H160.895C173.321 3.13123 183.395 13.2048 183.395 25.6312V51.2752H22.3198V25.6312Z" stroke="white" stroke-width="5"/>
<path id="Rectangle 23" d="M125.277 83.6688H11.7122C7.01774 83.6688 3.21216 79.8632 3.21216 75.1688V60.6145C3.21216 55.9201 7.01774 52.1145 11.7122 52.1145H194.002C198.697 52.1145 202.502 55.9201 202.502 60.6145V75.1688C202.502 79.8632 198.697 83.6688 194.002 83.6688H175.93" stroke="white" stroke-width="5"/>
<circle id="Ellipse 4" cx="77.946" cy="17.2387" r="3.3215" fill="white"/>
<circle id="Ellipse 8" cx="51.3737" cy="28.8641" r="3.3215" fill="white"/>
<circle id="Ellipse 5" cx="102.857" cy="28.8641" r="3.3215" fill="white"/>
<circle id="Ellipse 6" cx="129.429" cy="17.2387" r="3.3215" fill="white"/>
<circle id="Ellipse 7" cx="154.341" cy="28.8641" r="3.3215" fill="white"/>
</g>
</svg>
