<svg width="167" height="157" viewBox="0 0 167 157" fill="none" xmlns="http://www.w3.org/2000/svg">
<g id="Group 5">
<circle id="Ellipse 10" cx="82.8843" cy="80.0134" r="47.9608" stroke="white" stroke-width="6"/>
<path id="Ellipse 11" d="M137.289 31.342C131.158 24.4896 123.739 18.801 115.37 14.6425C99.4829 6.74723 81.2637 4.90811 64.1187 9.46894C54.8857 11.9251 46.3046 16.1467 38.8103 21.8229M147.251 114.446C143.196 122.026 137.802 128.892 131.258 134.682C117.972 146.439 100.859 152.954 83.1173 153.011C65.3762 153.067 48.2216 146.661 34.8604 134.989C32.672 133.078 30.6099 131.046 28.6812 128.908" stroke="white" stroke-width="6"/>
<path id="Rectangle 25" d="M163.712 4.80879V139.493H152.184V73.1268V70.6268H149.684H143.018C140.992 70.6268 139.39 68.9124 139.526 66.8913L141.746 33.9524C142.597 21.3394 150.277 10.2015 161.765 4.92365L163.003 4.35445C163.335 4.20226 163.712 4.44426 163.712 4.80879Z" stroke="white" stroke-width="5"/>
<path id="Rectangle 26" d="M3 0.128906V38.6938C3 44.0185 7.31652 48.335 12.6412 48.335V48.335L13.3299 141.993H22.9711V48.335V48.335C28.2958 48.335 32.6123 44.0185 32.6123 38.6938V0.128906M12.6412 0.128906V32.4959M22.9711 0.128906V32.4959" stroke="white" stroke-width="5"/>
</g>
</svg>
