<svg width="44" height="42" viewBox="0 0 44 42" fill="none" xmlns="http://www.w3.org/2000/svg">
<path id="Star 1" d="M20.2223 1.44877C20.9671 0.00391245 23.0329 0.00391136 23.7777 1.44877L29.0769 11.7291C29.3671 12.2922 29.9071 12.6845 30.5324 12.7866L41.9471 14.6496C43.5514 14.9114 44.1898 16.8762 43.0458 18.031L34.9062 26.2476C34.4603 26.6977 34.254 27.3325 34.3502 27.9587L36.1057 39.3904C36.3524 40.9971 34.6811 42.2114 33.2293 41.4802L22.8996 36.278C22.3337 35.9931 21.6663 35.9931 21.1004 36.278L10.7707 41.4802C9.31891 42.2114 7.64757 40.9971 7.8943 39.3904L9.64982 27.9587C9.74599 27.3325 9.53974 26.6977 9.09384 26.2476L0.95422 18.031C-0.189777 16.8762 0.448618 14.9114 2.05291 14.6496L13.4676 12.7866C14.0929 12.6845 14.6329 12.2922 14.9231 11.7291L20.2223 1.44877Z" fill="#FF6B6B"/>
</svg>
